<?xml version="1.0" encoding="UTF-8" standalone="no"?>
<!-- Created with Inkscape (http://www.inkscape.org/) -->

<svg
   xmlns:dc="http://purl.org/dc/elements/1.1/"
   xmlns:cc="http://creativecommons.org/ns#"
   xmlns:rdf="http://www.w3.org/1999/02/22-rdf-syntax-ns#"
   xmlns:svg="http://www.w3.org/2000/svg"
   xmlns="http://www.w3.org/2000/svg"
   xmlns:sodipodi="http://sodipodi.sourceforge.net/DTD/sodipodi-0.dtd"
   xmlns:inkscape="http://www.inkscape.org/namespaces/inkscape"
   width="210mm"
   height="297mm"
   id="svg2"
   version="1.1"
   inkscape:version="0.48.3.1 r9886"
   sodipodi:docname="Nuevo documento 1">
  <defs
     id="defs4">
    <marker
       orient="auto"
       markerHeight="3"
       markerWidth="4"
       markerUnits="strokeWidth"
       refY="5"
       refX="10"
       viewBox="0 0 10 10"
       id="ArrowStart">
      <path
         id="path3012"
         d="M 10 0 L 0 5 L 10 10 z" />
    </marker>
    <marker
       orient="auto"
       markerHeight="3"
       markerWidth="4"
       markerUnits="strokeWidth"
       refY="5"
       refX="0"
       viewBox="0 0 10 10"
       id="ArrowEnd">
      <path
         id="path3009"
         d="M 0 0 L 10 5 L 0 10 z" />
    </marker>
  </defs>
  <sodipodi:namedview
     id="base"
     pagecolor="#ffffff"
     bordercolor="#666666"
     borderopacity="1.0"
     inkscape:pageopacity="0.0"
     inkscape:pageshadow="2"
     inkscape:zoom="0.35"
     inkscape:cx="355.71429"
     inkscape:cy="514.28571"
     inkscape:document-units="px"
     inkscape:current-layer="layer1"
     showgrid="false"
     inkscape:window-width="1280"
     inkscape:window-height="973"
     inkscape:window-x="0"
     inkscape:window-y="29"
     inkscape:window-maximized="1" />
  <metadata
     id="metadata7">
    <rdf:RDF>
      <cc:Work
         rdf:about="">
        <dc:format>image/svg+xml</dc:format>
        <dc:type
           rdf:resource="http://purl.org/dc/dcmitype/StillImage" />
        <dc:title></dc:title>
      </cc:Work>
    </rdf:RDF>
  </metadata>
  <g
     inkscape:label="Capa 1"
     inkscape:groupmode="layer"
     id="layer1">
    <path
       id="path3016"
       d="m 664.95287,288.90227 4.015,-4.37625 3.96875,-4.375 3.79,-4.33 3.6525,-4.24 3.51875,-4.24 3.38375,-4.15 3.2925,-4.15 3.1125,-4.105 2.97625,-4.01375 2.8875,-4.015 2.70625,-3.92375 2.57125,-3.88 1.2175,-1.93875 1.2175,-1.895 1.17375,-1.895 1.1275,-1.89375 1.0825,-1.85 1.0825,-1.84875 0.9925,-1.85 0.9925,-1.80375 0.54125,-0.9925 0.49625,-0.9475 0.49625,-0.9475 0.45,-0.94625 0.49625,-0.9475 0.45125,-0.9475 0.45125,-0.9475 0.45125,-0.9475 0.72125,-1.62375 0.7225,-1.57875 0.67625,-1.62375 0.63125,-1.57875 0.63125,-1.57875 0.58625,-1.53375 0.54125,-1.5325 0.5425,-1.53375 0.45,-1.53375 0.45125,-1.48875 0.45125,-1.48875 0.36125,-1.48875 0.36,-1.4425 0.36125,-1.44375 0.27125,-1.39875 0.27,-1.44375 0.22625,-1.3975 0.18,-1.35375 0.135,-1.3525 0.135,-1.35375 0.0912,-1.3525 0.045,-1.30875 0.045,-1.3075 0,-1.26375 -0.045,-1.2625 -0.0913,-1.26375 -0.09,-1.2625 -0.18,-1.2175 -0.18,-1.17375 -0.18125,-1.1725 -0.27,-1.1725 -0.27125,-1.1725 -0.49625,-1.66875 -0.54125,-1.62375 -0.67625,-1.57875 -0.67625,-1.53375 -0.8125,-1.53375 -0.85625,-1.48875 -0.9475,-1.39875 -1.0375,-1.3975 -1.0825,-1.35375 -1.1725,-1.3075 -1.26375,-1.26375 -1.3525,-1.2175 -1.39875,-1.1725 -1.53375,-1.17375 -1.57875,-1.0825 -1.62375,-1.0375 -5.81875,-3.02125 -6.495,-2.48125 -7.2175,-1.985 -7.84875,-1.44375 -8.48,-0.90125 -9.06625,-0.40625 -9.69875,0.09 -10.23875,0.58625 -10.735,1.0375 -11.3225,1.53375 -11.7725,2.03 -12.22375,2.43625 -12.675,2.93125 -13.08125,3.38375 -13.4875,3.78875 -13.8475,4.195 -14.20875,4.64625 -14.52375,5.05125 -14.84125,5.4575 -15.065,5.81875 -15.38125,6.27 -15.5625,6.58625 -15.7875,6.99125 -15.9225,7.3525 -16.1025,7.71375 -16.23875,8.02875 -16.32875,8.39 -16.41875,8.705 -16.51,9.06625 -16.50875,9.3375 -16.50875,9.6525 -16.55375,9.96875 3.6075,4.24 13.98375,-7.6225 13.9375,-7.3975 13.89375,-7.1725 13.8025,-6.90125 13.7125,-6.63 13.5775,-6.40625 13.48625,-6.13375 13.30625,-5.86375 13.21625,-5.59375 12.99125,-5.3675 12.855,-5.0075 12.675,-4.78125 12.45,-4.465 12.22375,-4.195 11.95375,-3.87875 11.7275,-3.60875 11.5025,-3.2925 11.18625,-2.9325 10.91625,-2.66125 10.6,-2.345 10.23875,-1.985 9.96875,-1.66875 9.5625,-1.35375 9.2475,-0.9925 8.84125,-0.63125 8.48,-0.31625 8.02875,0.045 7.6225,0.40625 7.2175,0.7675 6.72125,1.1725 6.315,1.48875 5.77375,1.89375 1.2625,0.49625 1.2625,0.54125 1.21875,0.49625 1.2175,0.58625 1.1275,0.58625 1.1725,0.5875 1.0825,0.58625 1.0825,0.67625 2.6625,1.71375 2.435,1.805 2.21,1.93875 2.03,2.03 1.805,2.165 1.62375,2.25625 1.3975,2.345 1.21875,2.48125 0.99125,2.57125 0.8125,2.66125 0.63125,2.75125 0.40625,2.84125 0.225,2.9775 0,3.0225 -0.135,3.1575 -0.36125,3.2025 -0.58625,3.3375 -0.72125,3.3825 -0.9475,3.51875 -1.0825,3.56375 -1.3075,3.65375 -1.48875,3.74375 -1.66875,3.83375 -1.85,3.87875 -2.075,4.015 -2.21,4.06 -2.39,4.10375 -2.57125,4.24 -2.7525,4.24 -2.93125,4.37625 -3.1125,4.42 -3.2925,4.46625 21.335,0 z"
       style="fill:#28156e;fill-rule:evenodd;stroke:none"
       inkscape:connector-curvature="0" />
    <path
       id="path3018"
       d="m 664.95287,288.90227 4.015,-4.37625 3.96875,-4.375 3.79,-4.33 3.6525,-4.24 3.51875,-4.24 3.38375,-4.15 3.2925,-4.15 3.1125,-4.105 2.97625,-4.01375 2.8875,-4.015 2.70625,-3.92375 2.57125,-3.88 1.2175,-1.93875 1.2175,-1.895 1.17375,-1.895 1.1275,-1.89375 1.0825,-1.85 1.0825,-1.84875 0.9925,-1.85 0.9925,-1.80375 0.54125,-0.9925 0.49625,-0.9475 0.49625,-0.9475 0.45,-0.94625 0.49625,-0.9475 0.45125,-0.9475 0.45125,-0.9475 0.45125,-0.9475 0.72125,-1.62375 0.7225,-1.57875 0.67625,-1.62375 0.63125,-1.57875 0.63125,-1.57875 0.58625,-1.53375 0.54125,-1.5325 0.5425,-1.53375 0.45,-1.53375 0.45125,-1.48875 0.45125,-1.48875 0.36125,-1.48875 0.36,-1.4425 0.36125,-1.44375 0.27125,-1.39875 0.27,-1.44375 0.22625,-1.3975 0.18,-1.35375 0.135,-1.3525 0.135,-1.35375 0.0912,-1.3525 0.045,-1.30875 0.045,-1.3075 0,-1.26375 -0.045,-1.2625 -0.0913,-1.26375 -0.09,-1.2625 -0.18,-1.2175 -0.18,-1.17375 -0.18125,-1.1725 -0.27,-1.1725 -0.27125,-1.1725 -0.49625,-1.66875 -0.54125,-1.62375 -0.67625,-1.57875 -0.67625,-1.53375 -0.8125,-1.53375 -0.85625,-1.48875 -0.9475,-1.39875 -1.0375,-1.3975 -1.0825,-1.35375 -1.1725,-1.3075 -1.26375,-1.26375 -1.3525,-1.2175 -1.39875,-1.1725 -1.53375,-1.17375 -1.57875,-1.0825 -1.62375,-1.0375 -5.81875,-3.02125 -6.495,-2.48125 -7.2175,-1.985 -7.84875,-1.44375 -8.48,-0.90125 -9.06625,-0.40625 -9.69875,0.09 -10.23875,0.58625 -10.735,1.0375 -11.3225,1.53375 -11.7725,2.03 -12.22375,2.43625 -12.675,2.93125 -13.08125,3.38375 -13.4875,3.78875 -13.8475,4.195 -14.20875,4.64625 -14.52375,5.05125 -14.84125,5.4575 -15.065,5.81875 -15.38125,6.27 -15.5625,6.58625 -15.7875,6.99125 -15.9225,7.3525 -16.1025,7.71375 -16.23875,8.02875 -16.32875,8.39 -16.41875,8.705 -16.51,9.06625 -16.50875,9.3375 -16.50875,9.6525 -16.55375,9.96875 3.6075,4.24 13.98375,-7.6225 13.9375,-7.3975 13.89375,-7.1725 13.8025,-6.90125 13.7125,-6.63 13.5775,-6.40625 13.48625,-6.13375 13.30625,-5.86375 13.21625,-5.59375 12.99125,-5.3675 12.855,-5.0075 12.675,-4.78125 12.45,-4.465 12.22375,-4.195 11.95375,-3.87875 11.7275,-3.60875 11.5025,-3.2925 11.18625,-2.9325 10.91625,-2.66125 10.6,-2.345 10.23875,-1.985 9.96875,-1.66875 9.5625,-1.35375 9.2475,-0.9925 8.84125,-0.63125 8.48,-0.31625 8.02875,0.045 7.6225,0.40625 7.2175,0.7675 6.72125,1.1725 6.315,1.48875 5.77375,1.89375 1.2625,0.49625 1.2625,0.54125 1.21875,0.49625 1.2175,0.58625 1.1275,0.58625 1.1725,0.5875 1.0825,0.58625 1.0825,0.67625 2.6625,1.71375 2.435,1.805 2.21,1.93875 2.03,2.03 1.805,2.165 1.62375,2.25625 1.3975,2.345 1.21875,2.48125 0.99125,2.57125 0.8125,2.66125 0.63125,2.75125 0.40625,2.84125 0.225,2.9775 0,3.0225 -0.135,3.1575 -0.36125,3.2025 -0.58625,3.3375 -0.72125,3.3825 -0.9475,3.51875 -1.0825,3.56375 -1.3075,3.65375 -1.48875,3.74375 -1.66875,3.83375 -1.85,3.87875 -2.075,4.015 -2.21,4.06 -2.39,4.10375 -2.57125,4.24 -2.7525,4.24 -2.93125,4.37625 -3.1125,4.42 -3.2925,4.46625 21.335,0 z"
       style="fill:none;stroke:#1f1a16;stroke-width:0.27064124"
       inkscape:connector-curvature="0" />
    <path
       id="path3020"
       d="m 339.64287,566.35352 -13.4875,5.4125 -13.44125,5.1875 -13.3525,4.9625 -13.21625,4.78125 -13.12625,4.6 -12.945,4.37625 -12.81125,4.15 -12.675,3.92375 -12.44875,3.69875 -12.26875,3.51875 -12.04375,3.2475 -11.86375,3.0225 -11.5925,2.75125 -11.32125,2.52625 -11.05125,2.3 -10.78125,2.03 -10.50875,1.75875 -10.14962,1.48875 -9.83325,1.2625 -9.51763,0.9475 -9.156624,0.7225 -8.75075,0.405 -8.389875,0.135 -8.029,-0.135 -7.578,-0.45125 -7.126875,-0.76625 -6.720875,-1.0375 -6.22475,-1.35375 -5.77375,-1.66875 -5.2775,-1.93875 -4.781375,-2.30125 -4.285125,-2.61625 -3.06725,-2.39 -2.706412,-2.66125 -2.255338,-2.8875 -1.9395996,-3.1575 -1.533625,-3.3825 -1.1727875,-3.56375 -0.8570275,-3.83375 -0.4510687,-3.97 -0.1353213,-4.195 0.225535,-4.375 0.496175,-4.55625 0.8570325,-4.69 1.2178875,-4.8275 1.488525,-5.00625 1.7591626,-5.0975 2.120025,-5.2325 2.345562,-5.3225 2.661275,-5.4125 2.932,-5.5475 3.247625,-5.59375 3.47325,-5.68375 3.69875,-5.68375 4.0145,-5.77375 4.195,-5.81875 4.465625,-5.81875 4.691,-5.86375 4.91675,-5.86375 5.142125,-5.86375 5.36775,-5.81875 5.548125,-5.81875 5.728625,-5.77375 5.954,-5.77375 2.029875,13.8025 -3.518375,4.33 -3.29275,4.28625 -3.06725,4.24 -2.886875,4.24 -2.61625,4.195 -2.43575,4.14875 -2.21025,4.105 -1.984625,4.06 -1.80425,4.06 -1.57875,3.96875 -1.35325,3.925 -1.17275,3.83375 -0.94725,3.83375 -0.766875,3.69875 -0.586375,3.69875 -0.360875,3.56375 -0.13525,3.51875 0,3.4275 0.2255,3.3375 0.406,3.24875 0.6315,3.2025 0.76675,3.06625 0.94725,2.9325 1.17275,2.88625 1.35325,2.7525 1.4885,2.61625 1.714125,2.57 1.849375,2.39125 2.074875,2.3 2.21025,2.12 2.390625,2.03 2.526,1.895 3.87925,2.48125 4.285125,2.255 4.600875,2.03 4.916625,1.80375 5.2775,1.62375 5.638374,1.35375 5.909,1.1725 6.26988,0.9925 6.5405,0.72125 6.85625,0.54125 7.12737,0.31625 7.4425,0.09 7.6675,-0.09 7.98375,-0.31625 8.21,-0.49625 8.48,-0.72125 8.75125,-0.9475 8.93125,-1.1725 9.20125,-1.35375 9.4275,-1.53375 9.6075,-1.80375 9.83375,-1.985 10.05875,-2.165 10.23875,-2.39 10.42,-2.61625 10.555,-2.7975 10.78,-2.97625 10.91625,-3.2025 11.09625,-3.42875 11.23125,-3.60875 11.3675,-3.83375 11.5025,-4.015 2.03,4.105 z"
       style="fill:#28156e;fill-rule:evenodd;stroke:none"
       inkscape:connector-curvature="0" />
    <path
       id="path3022"
       d="m 339.64287,566.35352 -13.4875,5.4125 -13.44125,5.1875 -13.3525,4.9625 -13.21625,4.78125 -13.12625,4.6 -12.945,4.37625 -12.81125,4.15 -12.675,3.92375 -12.44875,3.69875 -12.26875,3.51875 -12.04375,3.2475 -11.86375,3.0225 -11.5925,2.75125 -11.32125,2.52625 -11.05125,2.3 -10.78125,2.03 -10.50875,1.75875 -10.14962,1.48875 -9.83325,1.2625 -9.51763,0.9475 -9.156624,0.7225 -8.75075,0.405 -8.389875,0.135 -8.029,-0.135 -7.578,-0.45125 -7.126875,-0.76625 -6.720875,-1.0375 -6.22475,-1.35375 -5.77375,-1.66875 -5.2775,-1.93875 -4.781375,-2.30125 -4.285125,-2.61625 -3.06725,-2.39 -2.706412,-2.66125 -2.255338,-2.8875 -1.9395996,-3.1575 -1.533625,-3.3825 -1.1727875,-3.56375 -0.8570275,-3.83375 -0.4510687,-3.97 -0.1353213,-4.195 0.225535,-4.375 0.496175,-4.55625 0.8570325,-4.69 1.2178875,-4.8275 1.488525,-5.00625 1.7591626,-5.0975 2.120025,-5.2325 2.345562,-5.3225 2.661275,-5.4125 2.932,-5.5475 3.247625,-5.59375 3.47325,-5.68375 3.69875,-5.68375 4.0145,-5.77375 4.195,-5.81875 4.465625,-5.81875 4.691,-5.86375 4.91675,-5.86375 5.142125,-5.86375 5.36775,-5.81875 5.548125,-5.81875 5.728625,-5.77375 5.954,-5.77375 2.029875,13.8025 -3.518375,4.33 -3.29275,4.28625 -3.06725,4.24 -2.886875,4.24 -2.61625,4.195 -2.43575,4.14875 -2.21025,4.105 -1.984625,4.06 -1.80425,4.06 -1.57875,3.96875 -1.35325,3.925 -1.17275,3.83375 -0.94725,3.83375 -0.766875,3.69875 -0.586375,3.69875 -0.360875,3.56375 -0.13525,3.51875 0,3.4275 0.2255,3.3375 0.406,3.24875 0.6315,3.2025 0.76675,3.06625 0.94725,2.9325 1.17275,2.88625 1.35325,2.7525 1.4885,2.61625 1.714125,2.57 1.849375,2.39125 2.074875,2.3 2.21025,2.12 2.390625,2.03 2.526,1.895 3.87925,2.48125 4.285125,2.255 4.600875,2.03 4.916625,1.80375 5.2775,1.62375 5.638374,1.35375 5.909,1.1725 6.26988,0.9925 6.5405,0.72125 6.85625,0.54125 7.12737,0.31625 7.4425,0.09 7.6675,-0.09 7.98375,-0.31625 8.21,-0.49625 8.48,-0.72125 8.75125,-0.9475 8.93125,-1.1725 9.20125,-1.35375 9.4275,-1.53375 9.6075,-1.80375 9.83375,-1.985 10.05875,-2.165 10.23875,-2.39 10.42,-2.61625 10.555,-2.7975 10.78,-2.97625 10.91625,-3.2025 11.09625,-3.42875 11.23125,-3.60875 11.3675,-3.83375 11.5025,-4.015 2.03,4.105 z"
       style="fill:none;stroke:#1f1a16;stroke-width:0.27064124"
       inkscape:connector-curvature="0" />
    <path
       id="path3024"
       d="m 496.79412,413.71227 -1.2625,0.045 -1.2625,0 -1.17375,-0.045 -1.2175,-0.045 -1.1725,-0.09 -1.1275,-0.135 -1.1275,-0.18125 -1.1275,-0.18 -1.08375,-0.27125 -1.0375,-0.225 -1.0825,-0.31625 -1.0375,-0.315 -1.03625,-0.36125 -0.9925,-0.36125 -0.9925,-0.405 -0.9925,-0.40625 -0.9025,-0.45125 -0.9025,-0.49625 -0.90125,-0.49625 -0.9025,-0.54125 -0.8575,-0.58625 -0.85625,-0.58625 -0.8575,-0.63125 -0.85625,-0.6325 -0.8125,-0.67625 -0.8125,-0.72125 -0.81125,-0.7225 -0.7675,-0.76625 -0.76625,-0.7675 -0.76625,-0.81125 -0.7225,-0.8575 -0.67625,-0.85625 -0.67625,-0.9025 -0.6775,-0.9025 -0.63125,-0.90125 -0.58625,-0.9475 -0.54125,-0.9475 -0.54125,-0.9925 -0.49625,-0.9925 -0.45125,-0.9925 -0.45125,-0.9925 -0.405,-1.03625 -0.40625,-0.9925 -0.31625,-0.9925 -0.36,-1.0375 -0.27125,-0.9925 -0.27125,-1.0375 -0.27,-0.9925 -0.18,-1.0825 -0.18125,-1.0825 -0.135,-1.0825 -0.135,-1.1275 -0.09,-1.1275 -0.045,-1.1275 0,-1.17375 0,-1.1725 0.045,-1.1725 0.045,-1.1725 0.09,-1.17375 0.135,-1.1725 0.135,-1.1725 0.18125,-1.1725 0.225,-1.21875 0.22625,-1.1725 0.27,-1.2625 0.31625,-1.26375 0.315,-1.2175 0.36125,-1.2175 0.40625,-1.2175 0.36,-1.21875 0.45125,-1.1725 0.45125,-1.1725 0.45125,-1.1275 0.54125,-1.17375 0.49625,-1.0825 0.54125,-1.1275 0.58625,-1.0825 0.58625,-1.0375 0.63125,-1.0375 0.6325,-1.0375 0.67625,-1.0375 0.72125,-1.0825 0.7225,-1.0375 0.72125,-0.9925 0.8125,-0.99125 0.76625,-0.9925 0.8575,-0.9925 0.81125,-0.9475 0.9025,-0.9475 0.9025,-0.9025 0.90125,-0.94625 0.9475,-0.9025 0.9925,-0.9475 0.9925,-0.9025 1.0375,-0.85625 1.0375,-0.9025 1.0825,-0.8575 1.0825,-0.85625 1.0825,-0.8125 1.1275,-0.76625 1.1275,-0.7675 1.0825,-0.76625 1.1725,-0.67625 1.12875,-0.6775 1.1275,-0.63125 1.1725,-0.63125 1.1275,-0.58625 1.1275,-0.58625 1.1275,-0.54125 1.0825,-0.49625 1.12875,-0.49625 1.0825,-0.45125 1.1725,-0.45125 1.1725,-0.36 1.1725,-0.40625 1.1725,-0.31625 1.17375,-0.315 1.1725,-0.31625 1.1725,-0.27125 1.1725,-0.225 1.21875,-0.18 1.1725,-0.18125 1.1725,-0.18 1.2175,-0.09 1.17375,-0.135 1.2175,-0.0462 1.1725,-0.045 1.21875,0 132.2525,-0.27 -12.31375,44.83625 -132.20875,0 -0.40625,0 -0.94625,0 -0.6325,0.045 -0.72125,0.09 -0.76625,0.135 -0.8125,0.22625 -0.85625,0.27 -0.8125,0.36125 -0.45125,0.225 -0.36125,0.22625 -0.405,0.27 -0.36125,0.31625 -0.36125,0.315 -0.36,0.36125 -0.31625,0.40625 -0.31625,0.40625 -0.27,0.49625 -0.22625,0.49625 -0.225,0.54125 -0.135,0.58625 -0.045,0.27 -0.045,0.27125 0.045,0.315 0.045,0.27125 0.09,0.63125 0.045,0.63125 0.135,0.49625 0.13625,0.49625 0.135,0.49625 0.18,0.54125 0.18125,0.49625 0.225,0.45125 0.31625,0.40625 0.405,0.405 0.40625,0.45125 0.40625,0.45125 0.40625,0.40625 0.45,0.31625 0.45125,0.315 0.45125,0.27125 0.45125,0.315 0.45125,0.22625 0.45125,0.135 0.49625,0.135 0.54125,0.135 0.54125,0.13625 0.54125,0.09 0.49625,0.09 0.54125,0.045 0.49625,0 94.0925,-0.225 1.2175,0 1.26375,0.09 1.1725,0.09 1.2175,0.135 1.1725,0.18125 1.17375,0.18 1.1275,0.225 1.1275,0.22625 1.0825,0.225 1.0825,0.27125 1.0825,0.27 1.0375,0.31625 0.9925,0.36125 0.9925,0.36 0.9475,0.40625 0.94625,0.40625 0.9475,0.49625 0.9475,0.49625 0.9475,0.49625 0.9025,0.54125 0.90125,0.58625 0.9025,0.63125 0.8575,0.63125 0.81125,0.67625 0.8575,0.7225 0.81125,0.72125 0.7675,0.7675 0.76625,0.76625 0.7675,0.8125 0.76625,0.81125 0.72125,0.8575 0.6775,0.85625 0.67625,0.9025 0.67625,0.9025 0.63125,0.9025 0.5875,0.90125 0.54125,0.9475 0.54125,0.9475 0.49625,0.9925 0.49625,0.94625 0.45,0.9925 0.40625,0.9925 0.36125,0.9925 0.36125,1.0375 0.315,1.0375 0.31625,1.0375 0.27,1.0375 0.22625,1.0825 0.18,1.0825 0.18,1.0825 0.13625,1.0825 0.135,1.0825 0.09,1.1275 0.045,1.12875 0.045,1.1275 -0.045,1.1275 0,1.1275 -0.045,1.1725 -0.09,1.1725 -0.135,1.17375 -0.13625,1.2175 -0.18,1.2175 -0.225,1.26375 -0.27125,1.2175 -0.31625,1.2625 -0.36,1.26375 -0.36125,1.2175 -0.40625,1.2175 -0.405,1.1725 -0.40625,1.17375 -0.45125,1.1725 -0.45125,1.1275 -0.45125,1.1275 -0.49625,1.1275 -0.54125,1.12875 -0.54125,1.0825 -0.58625,1.1275 -0.58625,1.0825 -0.63125,1.0825 -0.67625,1.0825 -0.6325,0.9925 -0.67625,0.9925 -0.72125,1.0375 -0.7225,0.99125 -0.76625,0.9925 -0.8125,0.9475 -0.76625,0.9925 -0.8575,0.9925 -0.85625,0.9475 -0.8575,0.9925 -0.9025,0.94625 -0.9475,0.9475 -0.94625,0.9025 -0.9925,0.9025 -1.0375,0.90125 -1.0375,0.9025 -1.0825,0.8575 -1.0825,0.85625 -1.0825,0.8125 -1.0825,0.76625 -1.1275,0.7675 -1.08375,0.72125 -1.1275,0.72125 -1.0825,0.6775 -1.1275,0.63125 -1.1275,0.63125 -1.1275,0.58625 -1.1275,0.58625 -1.1725,0.54125 -1.12875,0.49625 -1.1725,0.49625 -1.1725,0.45125 -1.1275,0.40625 -1.1725,0.40625 -1.17375,0.36 -1.1725,0.31625 -1.1725,0.27 -1.1725,0.27125 -1.17375,0.18 -1.1275,0.18125 -1.66875,0.135 -2.39,0.135 -2.9325,0.135 -3.1575,0.0913 -3.2025,0.09 -2.9775,0.045 -2.435,0.045 -1.71375,0 -131.5325,0 8.97625,-41.67875 131.48625,0 1.30875,0.09 1.53375,0.09 0.85625,0.09 0.8575,0 0.9025,0 0.9025,-0.09 0.90125,-0.135 0.9025,-0.225 0.40625,-0.13625 0.45125,-0.18 0.405,-0.18 0.40625,-0.22625 0.40625,-0.27 0.36125,-0.27125 0.405,-0.315 0.31625,-0.36125 0.36125,-0.36125 0.315,-0.45125 0.31625,-0.45125 0.27,-0.54125 0.22625,-0.54125 0.135,-0.54125 0.09,-0.54125 0.09,-0.49625 0.045,-0.63125 0,-0.63125 0.0463,-0.63125 0.09,-0.63125 0.045,-0.6325 -0.045,-0.58625 -0.045,-0.54125 -0.13625,-0.54125 -0.045,-0.49625 -0.135,-0.45125 -0.18,-0.495 -0.22625,-0.45125 -0.315,-0.45125 -0.27125,-0.45125 -0.27,-0.49625 -0.27125,-0.49625 -0.40625,-0.45125 -0.36,-0.45125 -0.40625,-0.45 -0.36125,-0.40625 -0.40625,-0.31625 -0.45,-0.315 -0.49625,-0.22625 -0.5875,-0.135 -0.45,-0.225 -0.49625,-0.18125 -0.49625,-0.135 -0.54125,-0.09 -0.58625,-0.045 -0.58625,-0.045 -0.5875,-0.0462 -0.63125,0 0.045,-0.225 -83.2675,0 z"
       style="fill:#28156e;fill-rule:evenodd;stroke:none"
       inkscape:connector-curvature="0" />
    <path
       id="path3026"
       d="m 496.79412,413.71227 -1.2625,0.045 -1.2625,0 -1.17375,-0.045 -1.2175,-0.045 -1.1725,-0.09 -1.1275,-0.135 -1.1275,-0.18125 -1.1275,-0.18 -1.08375,-0.27125 -1.0375,-0.225 -1.0825,-0.31625 -1.0375,-0.315 -1.03625,-0.36125 -0.9925,-0.36125 -0.9925,-0.405 -0.9925,-0.40625 -0.9025,-0.45125 -0.9025,-0.49625 -0.90125,-0.49625 -0.9025,-0.54125 -0.8575,-0.58625 -0.85625,-0.58625 -0.8575,-0.63125 -0.85625,-0.6325 -0.8125,-0.67625 -0.8125,-0.72125 -0.81125,-0.7225 -0.7675,-0.76625 -0.76625,-0.7675 -0.76625,-0.81125 -0.7225,-0.8575 -0.67625,-0.85625 -0.67625,-0.9025 -0.6775,-0.9025 -0.63125,-0.90125 -0.58625,-0.9475 -0.54125,-0.9475 -0.54125,-0.9925 -0.49625,-0.9925 -0.45125,-0.9925 -0.45125,-0.9925 -0.405,-1.03625 -0.40625,-0.9925 -0.31625,-0.9925 -0.36,-1.0375 -0.27125,-0.9925 -0.27125,-1.0375 -0.27,-0.9925 -0.18,-1.0825 -0.18125,-1.0825 -0.135,-1.0825 -0.135,-1.1275 -0.09,-1.1275 -0.045,-1.1275 0,-1.17375 0,-1.1725 0.045,-1.1725 0.045,-1.1725 0.09,-1.17375 0.135,-1.1725 0.135,-1.1725 0.18125,-1.1725 0.225,-1.21875 0.22625,-1.1725 0.27,-1.2625 0.31625,-1.26375 0.315,-1.2175 0.36125,-1.2175 0.40625,-1.2175 0.36,-1.21875 0.45125,-1.1725 0.45125,-1.1725 0.45125,-1.1275 0.54125,-1.17375 0.49625,-1.0825 0.54125,-1.1275 0.58625,-1.0825 0.58625,-1.0375 0.63125,-1.0375 0.6325,-1.0375 0.67625,-1.0375 0.72125,-1.0825 0.7225,-1.0375 0.72125,-0.9925 0.8125,-0.99125 0.76625,-0.9925 0.8575,-0.9925 0.81125,-0.9475 0.9025,-0.9475 0.9025,-0.9025 0.90125,-0.94625 0.9475,-0.9025 0.9925,-0.9475 0.9925,-0.9025 1.0375,-0.85625 1.0375,-0.9025 1.0825,-0.8575 1.0825,-0.85625 1.0825,-0.8125 1.1275,-0.76625 1.1275,-0.7675 1.0825,-0.76625 1.1725,-0.67625 1.12875,-0.6775 1.1275,-0.63125 1.1725,-0.63125 1.1275,-0.58625 1.1275,-0.58625 1.1275,-0.54125 1.0825,-0.49625 1.12875,-0.49625 1.0825,-0.45125 1.1725,-0.45125 1.1725,-0.36 1.1725,-0.40625 1.1725,-0.31625 1.17375,-0.315 1.1725,-0.31625 1.1725,-0.27125 1.1725,-0.225 1.21875,-0.18 1.1725,-0.18125 1.1725,-0.18 1.2175,-0.09 1.17375,-0.135 1.2175,-0.0462 1.1725,-0.045 1.21875,0 132.2525,-0.27 -12.31375,44.83625 -132.20875,0 -0.40625,0 -0.94625,0 -0.6325,0.045 -0.72125,0.09 -0.76625,0.135 -0.8125,0.22625 -0.85625,0.27 -0.8125,0.36125 -0.45125,0.225 -0.36125,0.22625 -0.405,0.27 -0.36125,0.31625 -0.36125,0.315 -0.36,0.36125 -0.31625,0.40625 -0.31625,0.40625 -0.27,0.49625 -0.22625,0.49625 -0.225,0.54125 -0.135,0.58625 -0.045,0.27 -0.045,0.27125 0.045,0.315 0.045,0.27125 0.09,0.63125 0.045,0.63125 0.135,0.49625 0.13625,0.49625 0.135,0.49625 0.18,0.54125 0.18125,0.49625 0.225,0.45125 0.31625,0.40625 0.405,0.405 0.40625,0.45125 0.40625,0.45125 0.40625,0.40625 0.45,0.31625 0.45125,0.315 0.45125,0.27125 0.45125,0.315 0.45125,0.22625 0.45125,0.135 0.49625,0.135 0.54125,0.135 0.54125,0.13625 0.54125,0.09 0.49625,0.09 0.54125,0.045 0.49625,0 94.0925,-0.225 1.2175,0 1.26375,0.09 1.1725,0.09 1.2175,0.135 1.1725,0.18125 1.17375,0.18 1.1275,0.225 1.1275,0.22625 1.0825,0.225 1.0825,0.27125 1.0825,0.27 1.0375,0.31625 0.9925,0.36125 0.9925,0.36 0.9475,0.40625 0.94625,0.40625 0.9475,0.49625 0.9475,0.49625 0.9475,0.49625 0.9025,0.54125 0.90125,0.58625 0.9025,0.63125 0.8575,0.63125 0.81125,0.67625 0.8575,0.7225 0.81125,0.72125 0.7675,0.7675 0.76625,0.76625 0.7675,0.8125 0.76625,0.81125 0.72125,0.8575 0.6775,0.85625 0.67625,0.9025 0.67625,0.9025 0.63125,0.9025 0.5875,0.90125 0.54125,0.9475 0.54125,0.9475 0.49625,0.9925 0.49625,0.94625 0.45,0.9925 0.40625,0.9925 0.36125,0.9925 0.36125,1.0375 0.315,1.0375 0.31625,1.0375 0.27,1.0375 0.22625,1.0825 0.18,1.0825 0.18,1.0825 0.13625,1.0825 0.135,1.0825 0.09,1.1275 0.045,1.12875 0.045,1.1275 -0.045,1.1275 0,1.1275 -0.045,1.1725 -0.09,1.1725 -0.135,1.17375 -0.13625,1.2175 -0.18,1.2175 -0.225,1.26375 -0.27125,1.2175 -0.31625,1.2625 -0.36,1.26375 -0.36125,1.2175 -0.40625,1.2175 -0.405,1.1725 -0.40625,1.17375 -0.45125,1.1725 -0.45125,1.1275 -0.45125,1.1275 -0.49625,1.1275 -0.54125,1.12875 -0.54125,1.0825 -0.58625,1.1275 -0.58625,1.0825 -0.63125,1.0825 -0.67625,1.0825 -0.6325,0.9925 -0.67625,0.9925 -0.72125,1.0375 -0.7225,0.99125 -0.76625,0.9925 -0.8125,0.9475 -0.76625,0.9925 -0.8575,0.9925 -0.85625,0.9475 -0.8575,0.9925 -0.9025,0.94625 -0.9475,0.9475 -0.94625,0.9025 -0.9925,0.9025 -1.0375,0.90125 -1.0375,0.9025 -1.0825,0.8575 -1.0825,0.85625 -1.0825,0.8125 -1.0825,0.76625 -1.1275,0.7675 -1.08375,0.72125 -1.1275,0.72125 -1.0825,0.6775 -1.1275,0.63125 -1.1275,0.63125 -1.1275,0.58625 -1.1275,0.58625 -1.1725,0.54125 -1.12875,0.49625 -1.1725,0.49625 -1.1725,0.45125 -1.1275,0.40625 -1.1725,0.40625 -1.17375,0.36 -1.1725,0.31625 -1.1725,0.27 -1.1725,0.27125 -1.17375,0.18 -1.1275,0.18125 -1.66875,0.135 -2.39,0.135 -2.9325,0.135 -3.1575,0.0913 -3.2025,0.09 -2.9775,0.045 -2.435,0.045 -1.71375,0 -131.5325,0 8.97625,-41.67875 131.48625,0 1.30875,0.09 1.53375,0.09 0.85625,0.09 0.8575,0 0.9025,0 0.9025,-0.09 0.90125,-0.135 0.9025,-0.225 0.40625,-0.13625 0.45125,-0.18 0.405,-0.18 0.40625,-0.22625 0.40625,-0.27 0.36125,-0.27125 0.405,-0.315 0.31625,-0.36125 0.36125,-0.36125 0.315,-0.45125 0.31625,-0.45125 0.27,-0.54125 0.22625,-0.54125 0.135,-0.54125 0.09,-0.54125 0.09,-0.49625 0.045,-0.63125 0,-0.63125 0.0463,-0.63125 0.09,-0.63125 0.045,-0.6325 -0.045,-0.58625 -0.045,-0.54125 -0.13625,-0.54125 -0.045,-0.49625 -0.135,-0.45125 -0.18,-0.495 -0.22625,-0.45125 -0.315,-0.45125 -0.27125,-0.45125 -0.27,-0.49625 -0.27125,-0.49625 -0.40625,-0.45125 -0.36,-0.45125 -0.40625,-0.45 -0.36125,-0.40625 -0.40625,-0.31625 -0.45,-0.315 -0.49625,-0.22625 -0.5875,-0.135 -0.45,-0.225 -0.49625,-0.18125 -0.49625,-0.135 -0.54125,-0.09 -0.58625,-0.045 -0.58625,-0.045 -0.5875,-0.0462 -0.63125,0 0.045,-0.225 -83.2675,0"
       style="fill:none;stroke:#1f1a16;stroke-width:0.27064124"
       inkscape:connector-curvature="0" />
    <path
       id="path3028"
       d="m 226.78537,362.56102 16.77875,-45.01625 222.87375,0 -13.7575,44.88125 -84.35,0 -26.1175,111.36875 -55.70625,0 26.11625,-111.36875 -85.8375,0.135 z"
       style="fill:#28156e;fill-rule:evenodd;stroke:none"
       inkscape:connector-curvature="0" />
    <path
       id="path3030"
       d="m 226.78537,362.56102 16.77875,-45.01625 222.87375,0 -13.7575,44.88125 -84.35,0 -26.1175,111.36875 -55.70625,0 26.11625,-111.36875 -85.8375,0.135 z"
       style="fill:none;stroke:#1f1a16;stroke-width:0.27064124"
       inkscape:connector-curvature="0" />
    <path
       id="path3032"
       d="m 133.91037,473.79477 34.1,-159.2275 62.3375,0 -34.145,159.2275 -62.2925,0 z"
       style="fill:#28156e;fill-rule:evenodd;stroke:none"
       inkscape:connector-curvature="0" />
    <path
       id="path3034"
       d="m 133.91037,473.79477 34.1,-159.2275 62.3375,0 -34.145,159.2275 -62.2925,0 z"
       style="fill:none;stroke:#1f1a16;stroke-width:0.27064124"
       inkscape:connector-curvature="0" />
    <path
       id="path3036"
       d="m 113.79225,493.09977 19.80187,0 4.82625,31.89125 22.50875,-31.89125 19.215,0 -35.1375,44.295 -20.479,0 -10.73537,-44.295 z m 73.29812,0 18.945,0 -12.40375,44.295 -18.945,0 12.40375,-44.295 z m 32.5225,0 18.9,0 -9.3375,33.38 29.5,0 -3.0675,10.915 -48.39875,0 12.40375,-44.295 z m 57.015,0 18.945,0 -9.3825,33.38 29.5,0 -3.0675,10.915 -48.39875,0 12.40375,-44.295 z m 84.305,36.9875 -21.51625,0 -5.05125,7.3075 -19.30625,0 35.40875,-44.295 20.61375,0 10.6,44.295 -19.80125,0 -0.9475,-7.3075 z m -1.2625,-9.5625 -2.30125,-15.9225 -11.18625,15.9225 13.4875,0 z m 40.73125,-27.425 28.10125,0 2.03,0.0463 1.89375,0.09 1.76,0.09 1.71375,0.18 1.53375,0.22625 1.44375,0.315 1.3525,0.31625 1.21875,0.36125 1.1275,0.45 1.0825,0.45125 0.9925,0.54125 0.90125,0.54125 0.8575,0.63125 0.8125,0.6325 0.72125,0.72125 0.63125,0.72125 0.58625,0.7675 0.54125,0.81125 0.45125,0.8575 0.40625,0.8575 0.315,0.90125 0.27125,0.9475 0.18,0.9925 0.13625,0.9925 0.045,0.9925 0,1.0375 0,1.0825 -0.0913,1.0375 -0.135,1.0825 -0.225,1.0825 -0.22625,1.1275 -0.315,1.1275 -0.49625,1.71375 -0.54125,1.62375 -0.63125,1.53375 -0.6325,1.44375 -0.67625,1.30875 -0.72125,1.2175 -0.40625,0.58625 -0.40625,0.54125 -0.36,0.54125 -0.45125,0.49625 -0.8125,0.9475 -0.9025,0.9475 -0.94625,0.85625 -0.9925,0.8575 -1.0375,0.81125 -1.0375,0.7225 -1.1275,0.72125 -1.17375,0.67625 -1.1725,0.6325 -1.1725,0.58625 -1.1725,0.54125 -1.1725,0.45125 -1.21875,0.405 -1.1725,0.36125 -1.2175,0.31625 -1.17375,0.27 -1.62375,0.27125 -1.57875,0.225 -1.5325,0.225 -1.44375,0.18125 -1.44375,0.135 -1.35375,0.09 -1.3525,0.045 -1.30875,0 -28.05625,0 12.405,-44.295 z m 16.1025,10.05875 -6.81125,24.1775 4.64625,0 1.44375,0 1.3075,-0.045 1.26375,-0.09 1.1275,-0.09 1.0375,-0.135 0.9475,-0.18125 0.81125,-0.18 0.7675,-0.22625 0.67625,-0.27 0.67625,-0.27125 0.63125,-0.36 0.5875,-0.40625 0.63125,-0.45125 0.58625,-0.45125 0.54125,-0.54125 0.54125,-0.58625 0.49625,-0.63125 0.49625,-0.72125 0.45125,-0.8125 0.45,-0.9025 0.45125,-1.0375 0.40625,-1.0825 0.40625,-1.2175 0.40625,-1.2625 0.225,-0.8575 0.18,-0.8575 0.18125,-0.76625 0.135,-0.7675 0.09,-0.72125 0.045,-0.67625 0,-0.67625 0,-0.5875 -0.045,-0.58625 -0.09,-0.58625 -0.09,-0.49625 -0.18,-0.49625 -0.18125,-0.45125 -0.225,-0.405 -0.22625,-0.36125 -0.27,-0.36125 -0.36125,-0.315 -0.36125,-0.27125 -0.405,-0.27 -0.40625,-0.27125 -0.49625,-0.225 -0.54125,-0.22625 -0.54125,-0.18 -0.58625,-0.18 -0.63125,-0.13625 -0.6775,-0.135 -0.72125,-0.135 -0.72125,-0.09 -1.62375,-0.09 -1.76,-0.0462 -4.69125,0 z m 73.75,26.92875 -21.56125,0 -5.00625,7.3075 -19.30625,0 35.40875,-44.295 20.61375,0 10.6,44.295 -19.80125,0 -0.9475,-7.3075 z m -1.2625,-9.5625 -2.30125,-15.9225 -11.23125,15.9225 13.5325,0 z"
       style="fill:#da241d;fill-rule:evenodd;stroke:none"
       inkscape:connector-curvature="0" />
    <path
       id="path3038"
       d="m 113.79225,493.09977 19.80187,0 4.82625,31.89125 22.50875,-31.89125 19.215,0 -35.1375,44.295 -20.479,0 -10.73537,-44.295 z"
       style="fill:none;stroke:#1f1a16;stroke-width:0.27064124"
       inkscape:connector-curvature="0" />
    <path
       id="path3040"
       d="m 187.09037,493.09977 18.945,0 -12.40375,44.295 -18.945,0 12.40375,-44.295 z"
       style="fill:none;stroke:#1f1a16;stroke-width:0.27064124"
       inkscape:connector-curvature="0" />
    <path
       id="path3042"
       d="m 219.61287,493.09977 18.9,0 -9.3375,33.38 29.5,0 -3.0675,10.915 -48.39875,0 12.40375,-44.295 z"
       style="fill:none;stroke:#1f1a16;stroke-width:0.27064124"
       inkscape:connector-curvature="0" />
    <path
       id="path3044"
       d="m 276.62787,493.09977 18.945,0 -9.3825,33.38 29.5,0 -3.0675,10.915 -48.39875,0 12.40375,-44.295 z"
       style="fill:none;stroke:#1f1a16;stroke-width:0.27064124"
       inkscape:connector-curvature="0" />
    <path
       id="path3046"
       d="m 360.93287,530.08727 -21.51625,0 -5.05125,7.3075 -19.30625,0 35.40875,-44.295 20.61375,0 10.6,44.295 -19.80125,0 -0.9475,-7.3075 z"
       style="fill:none;stroke:#1f1a16;stroke-width:0.27064124"
       inkscape:connector-curvature="0" />
    <path
       id="path3048"
       d="m 359.67037,520.52477 -2.30125,-15.9225 -11.18625,15.9225 13.4875,0 z"
       style="fill:none;stroke:#1f1a16;stroke-width:0.27064124"
       inkscape:connector-curvature="0" />
    <path
       id="path3050"
       d="m 400.40162,493.09977 28.10125,0 2.03,0.0463 1.89375,0.09 1.76,0.09 1.71375,0.18 1.53375,0.22625 1.44375,0.315 1.3525,0.31625 1.21875,0.36125 1.1275,0.45 1.0825,0.45125 0.9925,0.54125 0.90125,0.54125 0.8575,0.63125 0.8125,0.6325 0.72125,0.72125 0.63125,0.72125 0.58625,0.7675 0.54125,0.81125 0.45125,0.8575 0.40625,0.8575 0.315,0.90125 0.27125,0.9475 0.18,0.9925 0.13625,0.9925 0.045,0.9925 0,1.0375 0,1.0825 -0.0913,1.0375 -0.135,1.0825 -0.225,1.0825 -0.22625,1.1275 -0.315,1.1275 -0.49625,1.71375 -0.54125,1.62375 -0.63125,1.53375 -0.6325,1.44375 -0.67625,1.30875 -0.72125,1.2175 -0.40625,0.58625 -0.40625,0.54125 -0.36,0.54125 -0.45125,0.49625 -0.8125,0.9475 -0.9025,0.9475 -0.94625,0.85625 -0.9925,0.8575 -1.0375,0.81125 -1.0375,0.7225 -1.1275,0.72125 -1.17375,0.67625 -1.1725,0.6325 -1.1725,0.58625 -1.1725,0.54125 -1.1725,0.45125 -1.21875,0.405 -1.1725,0.36125 -1.2175,0.31625 -1.17375,0.27 -1.62375,0.27125 -1.57875,0.225 -1.5325,0.225 -1.44375,0.18125 -1.44375,0.135 -1.35375,0.09 -1.3525,0.045 -1.30875,0 -28.05625,0 12.405,-44.295"
       style="fill:none;stroke:#1f1a16;stroke-width:0.27064124"
       inkscape:connector-curvature="0" />
    <path
       id="path3052"
       d="m 416.50412,503.15852 -6.81125,24.1775 4.64625,0 1.44375,0 1.3075,-0.045 1.26375,-0.09 1.1275,-0.09 1.0375,-0.135 0.9475,-0.18125 0.81125,-0.18 0.7675,-0.22625 0.67625,-0.27 0.67625,-0.27125 0.63125,-0.36 0.5875,-0.40625 0.63125,-0.45125 0.58625,-0.45125 0.54125,-0.54125 0.54125,-0.58625 0.49625,-0.63125 0.49625,-0.72125 0.45125,-0.8125 0.45,-0.9025 0.45125,-1.0375 0.40625,-1.0825 0.40625,-1.2175 0.40625,-1.2625 0.225,-0.8575 0.18,-0.8575 0.18125,-0.76625 0.135,-0.7675 0.09,-0.72125 0.045,-0.67625 0,-0.67625 0,-0.5875 -0.045,-0.58625 -0.09,-0.58625 -0.09,-0.49625 -0.18,-0.49625 -0.18125,-0.45125 -0.225,-0.405 -0.22625,-0.36125 -0.27,-0.36125 -0.36125,-0.315 -0.36125,-0.27125 -0.405,-0.27 -0.40625,-0.27125 -0.49625,-0.225 -0.54125,-0.22625 -0.54125,-0.18 -0.58625,-0.18 -0.63125,-0.13625 -0.6775,-0.135 -0.72125,-0.135 -0.72125,-0.09 -1.62375,-0.09 -1.76,-0.0462 -4.69125,0 z"
       style="fill:none;stroke:#1f1a16;stroke-width:0.27064124"
       inkscape:connector-curvature="0" />
    <path
       id="path3054"
       d="m 490.25412,530.08727 -21.56125,0 -5.00625,7.3075 -19.30625,0 35.40875,-44.295 20.61375,0 10.6,44.295 -19.80125,0 -0.9475,-7.3075 z"
       style="fill:none;stroke:#1f1a16;stroke-width:0.27064124"
       inkscape:connector-curvature="0" />
    <path
       id="path3056"
       d="m 488.99162,520.52477 -2.30125,-15.9225 -11.23125,15.9225 13.5325,0"
       style="fill:none;stroke:#1f1a16;stroke-width:0.27064124"
       inkscape:connector-curvature="0" />
    <g
       style="fill-rule:evenodd"
       id="g3058"
       transform="matrix(1.25,0,0,1.25,4.8591214,-418.66398)" />
  </g>
</svg>
